# xmcd CD database file
#
# Track frame offsets:
#	150
#	11070
#	19134
#	29831
#	41733
#	54959
#	66589
#	77930
#	88286
#	98690
#	108895
#	118387
#	127106
#	138660
#	148166
#	157567
#	166314
#	175499
#	186962
#	197248
#
# Disc length: 2776 seconds
#
# Revision: 0
# Processed by: cddbd v1.5.1PL0 Copyright (c) Steve Scherf et al.
# Submitted via: CDex 1.51
#
DISCID=2b0ad614
DTITLE=Various Artist - 4 Stars of Country
DYEAR=1900
DGENRE=Country
TTITLE0=Johnny Paycheck - Heartbreak Tenessee
TTITLE1=Willie Nelson - Things to Remember
TTITLE2=Hank Locklin - Please Help Me I'm Falling
TTITLE3=Gene Autry - I Hang my head and cry
TTITLE4=Johnny Paycheck - I'm the Only Hell Mama ever raised
TTITLE5=Willie Nelson - Follow me Around
TTITLE6=Hank Locklin - Send me the Pillow That you dream on
TTITLE7=Gene Autry - San Antonio Rose
TTITLE8=Johnny Paycheck - A-11
TTITLE9=Willie Nelson - Blame it on the Time
TTITLE10=Hank Locklin - Geisha Girl
TTITLE11=Gene Autry - You are my Sunshine
TTITLE12=Johnny Paycheck - Poor Boy
TTITLE13=Willie Nelson - Building Heartaches
TTITLE14=Hank Locklin - Flying South
TTITLE15=Gene Autry - Tears on My Pillow
TTITLE16=Johnny Paycheck - Where in the World
TTITLE17=Willie Nelson - I Hope So
TTITLE18=Hank Locklin - Let me be the One
TTITLE19=Gene Autry - You're the Only Star
EXTD=
EXTT0=
EXTT1=
EXTT2=
EXTT3=
EXTT4=
EXTT5=
EXTT6=
EXTT7=
EXTT8=
EXTT9=
EXTT10=
EXTT11=
EXTT12=
EXTT13=
EXTT14=
EXTT15=
EXTT16=
EXTT17=
EXTT18=
EXTT19=
PLAYORDER=
